<?xml version="1.0" encoding="utf-8" ?>
<svg baseProfile="full" height="800px" version="1.1" width="800px" xmlns="http://www.w3.org/2000/svg" xmlns:ev="http://www.w3.org/2001/xml-events" xmlns:xlink="http://www.w3.org/1999/xlink"><defs /><path d="m193.871094 225.636719-163.871094-75.632813v-86.804687c0-8.28125-6.714844-15-15-15-8.28125 0-15 6.71875-15 15v96.402343c0 5.851563 3.402344 11.164063 8.714844 13.617188l107.164062 49.460938h-36.609375c-4.558593 0-8.867187 2.070312-11.71875 5.628906l-64.257812 80.332031c-5.179688 6.46875-4.132813 15.910156 2.339843 21.089844 6.777344 5.421875 16.167969 3.800781 21.078126-2.351563l59.769531-74.699218h87.851562l-103.378906 68.921874c-4.183594 2.777344-6.683594 7.457032-6.683594 12.480469v162.492188c0 8.074219 6.203125 15.023437 14.265625 15.410156 8.617188.410156 15.734375-6.460937 15.734375-14.984375v-154.890625l99.601563-66.398437zm0 0" /><path d="m89.050781 125.019531 112.539063 51.941407c5.199218-9.402344 12.761718-17.320313 21.878906-22.941407l-113.136719-52.21875v-86.800781c0-8.515625-7.097656-15.378906-15.710937-14.984375-8.074219.371094-14.289063 7.324219-14.289063 15.40625v95.980469c0 5.847656 3.410157 11.167968 8.71875 13.617187zm0 0" /><path d="m288.132812 287.261719v-80.332031c0-17.53125-14.113281-31.832032-31.578124-32.128907-17.976563-.304687-32.6875 14.789063-32.6875 32.769531v79.691407l-53.773438 53.777343c-6.71875 6.714844-10.492188 15.828126-10.492188 25.328126 0 53.074218 42.378907 97.109374 95.449219 97.625 53.589844.519531 97.351563-42.917969 97.351563-96.378907v-1.246093c0-9.5-3.777344-18.613282-10.492188-25.328126zm0 0" /><path d="m310.410156 176.960938 112.539063-51.941407c5.308593-2.449219 8.71875-7.769531 8.71875-13.617187v-95.980469c0-8.082031-6.214844-15.035156-14.289063-15.40625-8.613281-.394531-15.710937 6.46875-15.710937 14.984375v86.800781l-113.136719 52.21875c9.117188 5.621094 16.679688 13.539063 21.878906 22.941407zm0 0" /><path d="m512 159.601562v-96.402343c0-8.28125-6.714844-15-15-15s-15 6.71875-15 15v86.804687l-163.871094 75.628906v50.078126l99.601563 66.398437v154.890625c0 8.523438 7.121093 15.394531 15.734375 14.980469 8.066406-.382813 14.265625-7.335938 14.265625-15.40625v-162.492188c0-5.023437-2.5-9.703125-6.679688-12.480469l-103.382812-68.921874h87.851562l59.769531 74.699218c4.910157 6.152344 14.300782 7.773438 21.082032 2.351563 6.46875-5.179688 7.519531-14.621094 2.339844-21.089844l-64.261719-80.332031c-2.851563-3.558594-7.160157-5.628906-11.71875-5.628906h-36.609375l107.164062-49.460938c5.3125-2.449219 8.714844-7.765625 8.714844-13.617188zm0 0" /></svg>