<svg height="512pt" viewBox="-32 0 512 512.0015" width="512pt" xmlns="http://www.w3.org/2000/svg"><path d="m103.007812 238.871094c2.910157-10.632813 7.199219-20.691406 12.660157-30h-52.472657c-3.96875 0-7.789062 1.578125-10.597656 4.386718l-48.203125 48.203126c-5.859375 5.859374-5.859375 15.359374 0 21.210937 5.851563 5.859375 15.351563 5.859375 21.210938 0l43.8125-43.800781zm0 0"/><path d="m62.136719 410.449219v-67.898438l40.121093-40.121093c-2.429687-9.71875-3.722656-19.890626-3.722656-30.359376 0-2.910156.101563-5.789062.300782-8.648437l-62.308594 62.308594c-2.8125 2.808593-4.390625 6.628906-4.390625 10.601562v80.339844c0 3.96875 1.578125 7.789063 4.390625 10.597656l80.328125 80.34375c2.929687 2.929688 6.769531 4.386719 10.609375 4.386719s7.683594-1.457031 10.613281-4.386719c5.847656-5.863281 5.847656-15.363281 0-21.222656zm0 0"/><path d="m132.746094 186.097656c6.902344-7.308594 14.671875-13.800781 23.140625-19.289062l-29.488281-29.492188v-67.910156l43.808593-43.796875c5.859375-5.863281 5.859375-15.363281 0-21.222656-5.859375-5.847657-15.359375-5.847657-21.210937 0l-48.199219 48.199219c-2.820313 2.820312-4.402344 6.632812-4.402344 10.613281v80.328125c0 3.980468 1.582031 7.800781 4.402344 10.609375zm0 0"/><path d="m348.898438 263.417969c.199218 2.859375.300781 5.742187.300781 8.652343 0 10.46875-1.292969 20.640626-3.722657 30.359376l40.121094 40.121093v67.898438l-75.941406 75.941406c-5.847656 5.859375-5.847656 15.359375 0 21.21875 2.929688 2.929687 6.769531 4.390625 10.613281 4.390625 3.839844 0 7.679688-1.460938 10.609375-4.390625l80.328125-80.339844c2.8125-2.808593 4.390625-6.628906 4.390625-10.597656v-80.34375c0-3.96875-1.578125-7.789063-4.390625-10.597656zm0 0"/><path d="m443.339844 261.460938-48.203125-48.203126c-2.808594-2.808593-6.628907-4.390624-10.597657-4.390624h-52.472656c5.460938 9.3125 9.75 19.371093 12.660156 30h33.589844l43.8125 43.800781c5.859375 5.859375 15.359375 5.859375 21.210938 0 5.859375-5.847657 5.859375-15.347657 0-21.207031zm0 0"/><path d="m321.335938 69.40625v67.910156l-29.488282 29.492188c8.46875 5.488281 16.238282 11.980468 23.140625 19.289062l31.949219-31.960937c2.820312-2.808594 4.398438-6.628907 4.398438-10.609375v-80.328125c0-3.980469-1.578126-7.792969-4.398438-10.613281l-48.199219-48.199219c-5.851562-5.847657-15.351562-5.847657-21.210937 0-5.859375 5.859375-5.859375 15.359375 0 21.222656zm0 0"/><path d="m263.347656 185.300781c4.832032-7.398437 7.652344-16.222656 7.652344-25.703125 0-25.988281-21.144531-47.132812-47.132812-47.132812-25.988282 0-47.132813 21.144531-47.132813 47.132812 0 9.480469 2.820313 18.304688 7.652344 25.703125-32.917969 15.039063-55.851563 48.273438-55.851563 86.765625 0 52.566406 42.765625 95.335938 95.332032 95.335938 52.566406 0 95.332031-42.769532 95.332031-95.335938 0-38.492187-22.933594-71.730468-55.851563-86.765625zm0 0"/></svg>