<svg height="512pt" viewBox="0 0 512 512.00041" width="512pt" xmlns="http://www.w3.org/2000/svg"><path d="m179.621094 298.871094c-.5-3.5-.75-7.082032-.75-10.71875v-19.28125h-83.539063c-3.863281 0-7.570312 1.488281-10.363281 4.148437l-80.328125 76.761719c-2.960937 2.828125-4.640625 6.75-4.640625 10.847656v101.660156c0 8.28125 6.71875 15 15 15s15-6.71875 15-15v-95.25l71.351562-68.167968zm0 0"/><path d="m191.300781 330.089844c-5.539062-8.507813-9.441406-18.167969-11.269531-28.539063l-76.949219 51.300781c-4.171875 2.777344-6.683593 7.457032-6.683593 12.480469v68.667969c0 4.03125 1.621093 7.890625 4.5 10.710938l64.273437 63c2.917969 2.859374 6.707031 4.289062 10.5 4.289062 13.308594 0 20.117187-16.273438 10.5-25.710938l-59.773437-58.589843v-54.339844zm0 0"/><path d="m85.53125 234.710938c2.789062 2.671874 6.5 4.160156 10.359375 4.160156h84.898437c1.171876-5.179688 2.871094-10.210938 5.082032-15.019532-2.199219-4.800781-3.910156-9.808593-5.082032-14.980468h-78.878906l-71.351562-68.179688v-95.25c0-8.28125-6.71875-15-15-15-8.277344 0-15 6.71875-15 15v101.660156c0 4.101563 1.679687 8.019532 4.640625 10.851563zm0 0"/><path d="m103.082031 156.011719 77.449219 51.640625c-1.101562-5.191406-1.660156-10.519532-1.660156-15.921875 0-6.757813.867187-13.320313 2.507812-19.570313l-54.980468-36.648437v-67.25l43.660156-42.511719c5.941406-5.777344 6.070312-15.277344.292968-21.207031-5.78125-5.941407-15.28125-6.070313-21.222656-.292969l-48.1875 46.941406c-2.902344 2.820313-4.542968 6.691406-4.542968 10.738282v81.601562c0 5.019531 2.511718 9.699219 6.683593 12.480469zm0 0"/><path d="m330.621094 172.160156c1.640625 6.25 2.507812 12.8125 2.507812 19.570313 0 5.402343-.558594 10.730469-1.660156 15.921875l77.453125-51.640625c4.167969-2.78125 6.679687-7.460938 6.679687-12.480469v-81.601562c0-4.046876-1.640624-7.917969-4.542968-10.738282l-48.1875-46.941406c-5.941406-5.769531-15.441406-5.648438-21.222656.292969-5.777344 5.929687-5.648438 15.429687.292968 21.207031l43.660156 42.511719v67.25zm0 0"/><path d="m497 30.441406c-8.28125 0-15 6.71875-15 15v95.25l-71.351562 68.179688h-79.4375c-1.171876 5.171875-2.878907 10.179687-5.082032 14.980468 2.210938 4.808594 3.910156 9.839844 5.082032 15.019532h85.460937c3.859375 0 7.566406-1.488282 10.359375-4.160156l80.328125-76.757813c2.960937-2.832031 4.640625-6.75 4.640625-10.851563v-101.660156c0-8.28125-6.71875-15-15-15zm0 0"/><path d="m256 144.601562c-25.988281 0-47.132812 21.144532-47.132812 47.132813 0 12.402344 4.820312 23.695313 12.683593 32.117187-8.183593 8.75-12.683593 20.097657-12.683593 32.148438v32.148438c0 25.980468 21.136718 47.117187 47.117187 47.117187h.015625.015625c25.980469 0 47.117187-21.136719 47.117187-47.117187v-32.148438c0-12.050781-4.5-23.398438-12.679687-32.148438 7.855469-8.421874 12.679687-19.714843 12.679687-32.117187 0-25.988281-21.144531-47.132813-47.132812-47.132813zm0 0"/><path d="m427.03125 273.019531c-2.792969-2.660156-6.5-4.148437-10.359375-4.148437h-84.101563v19.28125c0 3.636718-.25 7.21875-.75 10.71875h78.828126l71.351562 68.167968v95.25c0 8.28125 6.71875 15 15 15s15-6.71875 15-15v-101.660156c0-4.097656-1.679688-8.019531-4.640625-10.847656zm0 0"/><path d="m408.359375 352.851562-76.949219-51.300781c-1.828125 10.371094-5.730468 20.03125-11.269531 28.539063l64.898437 43.269531v54.339844l-59.769531 58.589843c-9.617187 9.4375-2.808593 25.710938 10.5 25.710938 3.789063 0 7.582031-1.429688 10.5-4.289062l64.269531-63c2.882813-2.820313 4.5-6.679688 4.5-10.710938v-68.667969c0-5.023437-2.507812-9.703125-6.679687-12.480469zm0 0"/></svg>