<?xml version="1.0" encoding="iso-8859-1"?>
<!-- Generator: Adobe Illustrator 19.0.0, SVG Export Plug-In . SVG Version: 6.00 Build 0)  -->
<svg version="1.1" id="Capa_1" xmlns="http://www.w3.org/2000/svg" xmlns:xlink="http://www.w3.org/1999/xlink" x="0px" y="0px"
	 viewBox="0 0 383.115 383.115" style="enable-background:new 0 0 383.115 383.115;" xml:space="preserve">
<g>
	<g>
		<ellipse cx="168.028" cy="277.3" rx="12.76" ry="9.56"/>
	</g>
</g>
<g>
	<g>
		<path d="M249.327,254.358c-3.309-5.163-7.695-9.55-12.859-12.859c-27.126-18.805-63.074-18.805-90.2,0
			c-19.772,12.67-25.529,38.97-12.859,58.741c3.309,5.163,7.695,9.55,12.859,12.859c27.123,18.817,63.077,18.817,90.2,0
			C256.24,300.43,261.997,274.13,249.327,254.358z M240.049,293.64c-2.589,4.234-6.147,7.791-10.38,10.38
			c-23.105,15.749-53.495,15.749-76.6,0c-14.757-9.024-19.405-28.303-10.38-43.06c2.589-4.234,6.147-7.791,10.38-10.38
			c23.105-15.749,53.495-15.749,76.6,0C244.425,259.604,249.073,278.883,240.049,293.64z"/>
	</g>
</g>
<g>
	<g>
		<ellipse cx="214.668" cy="277.3" rx="12.76" ry="9.56"/>
	</g>
</g>
<g>
	<g>
		<path d="M293.336,163.608c-0.009-0.009-0.019-0.019-0.028-0.028c-9.643-9.67-25.262-9.813-35.08-0.32l-0.36,0.32
			c-9.786,9.771-9.799,25.625-0.028,35.412c0.009,0.009,0.019,0.019,0.028,0.028h0c9.643,9.67,25.262,9.813,35.08,0.32l0.36-0.32
			C303.095,189.249,303.107,173.395,293.336,163.608z M285.202,191.006c-0.005,0.005-0.009,0.009-0.014,0.014l-0.24,0.24
			c-5.383,5.08-13.826,4.974-19.08-0.24c-5.346-5.339-5.352-14-0.014-19.346c0.005-0.005,0.009-0.009,0.014-0.014l0.24-0.24
			c5.383-5.08,13.826-4.974,19.08,0.24C290.534,176.999,290.54,185.66,285.202,191.006z"/>
	</g>
</g>
<g>
	<g>
		<path d="M379.428,96.38l-20-34.64l-0.28-0.6v-0.28l-21.08-36.56c-5.716-9.837-18.324-13.178-28.161-7.462
			c-3.174,1.844-5.797,4.503-7.599,7.702l-14.44,25c-13.697-7.943-28.347-14.112-43.6-18.36c-34.594-9.837-71.246-9.837-105.84,0
			c-15.166,4.333-29.722,10.569-43.32,18.56l-14.44-25c-0.894-1.593-1.997-3.059-3.28-4.36c-7.943-8.115-20.96-8.255-29.075-0.312
			c-1.309,1.281-2.441,2.731-3.365,4.312l-21.04,36.44v0.28l-0.28,0.52l-20,34.88c-5.53,8.029-4.661,18.838,2.08,25.88l-0.08,0.36
			c3.868,3.878,9.123,6.052,14.6,6.04h3.12c-9.61,21.27-14.587,44.34-14.6,67.68c0.188,46.384,19.595,90.614,53.6,122.16
			c72.801,67.265,185.079,67.265,257.88,0c34.005-31.546,53.412-75.776,53.6-122.16c0.027-23.332-4.909-46.402-14.48-67.68h3.16
			c5.477,0.012,10.732-2.162,14.6-6.04l0.32-0.36C384.178,115.285,385.014,104.424,379.428,96.38z M20.148,117.02
			c-2.449-0.003-4.795-0.982-6.52-2.72l-0.24-0.24c-1.602-1.713-2.489-3.974-2.48-6.32c0.041-0.816,0.189-1.623,0.44-2.4
			c0.294-0.901,0.726-1.751,1.28-2.52l0.28-0.44l20.48-35.52l0.32-0.6l20.88-36c2.509-4.418,8.125-5.966,12.543-3.457
			c1.443,0.819,2.637,2.014,3.457,3.457v0.28l17.28,29.92l3.64,6.32l0.2,0.4l0.32,0.52l21.04,35.88
			c2.516,4.389,0.997,9.987-3.392,12.502c-0.729,0.418-1.512,0.734-2.328,0.938h-2.36h-0.84H20.148z M362.748,195.98
			c-0.178,43.258-18.282,84.506-50,113.92c-68.443,63.118-173.877,63.118-242.32,0c-31.719-29.414-49.822-70.662-50-113.92
			c-0.028-23.292,5.281-46.28,15.52-67.2h69.12h1.12c1.351-0.079,2.691-0.293,4-0.64c10.954-2.905,17.48-14.14,14.575-25.094
			c-0.463-1.745-1.154-3.422-2.055-4.986l-20.6-35.68l-0.2-0.4v-0.36v-0.28l-1.12-1.76c12.796-7.511,26.491-13.371,40.76-17.44
			c32.557-9.24,67.043-9.24,99.6,0c14.269,4.067,27.965,9.927,40.76,17.44l-0.88,1.52v0.28l-0.32,0.64l-20.52,35.56
			c-5.631,9.886-2.181,22.465,7.705,28.095c1.514,0.863,3.132,1.529,4.815,1.985c1.309,0.347,2.649,0.561,4,0.64h1.12h69.16
			C357.383,149.345,362.777,172.507,362.748,195.98z M368.748,115.02l-0.24,0.24c-1.725,1.738-4.071,2.717-6.52,2.72h-84.36
			c-1.613-0.019-3.196-0.445-4.6-1.24c-4.499-2.409-6.193-8.008-3.785-12.507c0.119-0.223,0.248-0.441,0.385-0.653l20.52-35.56
			c0.166-0.242,0.313-0.496,0.44-0.76l21-36.36v-0.28c2.509-4.418,8.125-5.966,12.543-3.457c1.443,0.819,2.637,2.014,3.457,3.457
			l20.92,36.24l0.32,0.64l20.28,35.12l0.44,0.72c0.554,0.769,0.986,1.619,1.28,2.52c0.279,0.92,0.414,1.878,0.4,2.84
			C371.238,111.046,370.35,113.307,368.748,115.02z"/>
	</g>
</g>
<g>
	<g>
		<path d="M124.856,163.608c-0.009-0.009-0.019-0.019-0.028-0.028c-9.643-9.67-25.262-9.813-35.08-0.32l-0.36,0.32
			c-9.786,9.771-9.799,25.625-0.028,35.412c0.009,0.009,0.019,0.019,0.028,0.028c9.643,9.67,25.262,9.813,35.08,0.32l0.36-0.32
			C134.615,189.249,134.627,173.395,124.856,163.608z M116.842,190.926c-0.005,0.005-0.009,0.009-0.014,0.014l-0.24,0.24
			c-5.383,5.08-13.826,4.974-19.08-0.24c-5.346-5.339-5.352-14-0.014-19.346c0.005-0.005,0.009-0.009,0.014-0.014l0.24-0.24
			c5.383-5.08,13.826-4.974,19.08,0.24C122.174,176.919,122.18,185.58,116.842,190.926z"/>
	</g>
</g>
<g>
</g>
<g>
</g>
<g>
</g>
<g>
</g>
<g>
</g>
<g>
</g>
<g>
</g>
<g>
</g>
<g>
</g>
<g>
</g>
<g>
</g>
<g>
</g>
<g>
</g>
<g>
</g>
<g>
</g>
</svg>
